<svg xmlns="http://www.w3.org/2000/svg" viewBox="30 100 720 900" width="800" height="1000" role="img">
  <defs>
    <linearGradient id="wall" x1="0" y1="0" x2="0" y2="1">
      <stop offset="0" stop-color="#F4EDE2"/><stop offset="1" stop-color="#EBE1D2"/>
    </linearGradient>
    <linearGradient id="floor" x1="0" y1="0" x2="0" y2="1">
      <stop offset="0" stop-color="#E3D7C5"/><stop offset="1" stop-color="#D5C6AF"/>
    </linearGradient>
    <linearGradient id="wall2" x1="0" y1="0" x2="1" y2="1">
      <stop offset="0" stop-color="#EDE2D1"/><stop offset="1" stop-color="#E2D4BF"/>
    </linearGradient>
    <linearGradient id="floor2" x1="0" y1="0" x2="0" y2="1">
      <stop offset="0" stop-color="#CDB999"/><stop offset="1" stop-color="#BBA482"/>
    </linearGradient>
    <radialGradient id="light" cx="0.3" cy="0.2" r="0.9">
      <stop offset="0" stop-color="#FFFFFF" stop-opacity="0.55"/>
      <stop offset="1" stop-color="#FFFFFF" stop-opacity="0"/>
    </radialGradient>
    <radialGradient id="vignette" cx="0.5" cy="0.45" r="0.75">
      <stop offset="0.55" stop-color="#000" stop-opacity="0"/>
      <stop offset="1" stop-color="#2B1D11" stop-opacity="0.28"/>
    </radialGradient>
    <linearGradient id="sheen" x1="0" y1="0" x2="1" y2="1">
      <stop offset="0" stop-color="#FFFFFF" stop-opacity="0.35"/>
      <stop offset="0.5" stop-color="#FFFFFF" stop-opacity="0"/>
      <stop offset="1" stop-color="#000000" stop-opacity="0.12"/>
    </linearGradient>
    <linearGradient id="teak" x1="0" y1="0" x2="0" y2="1">
      <stop offset="0" stop-color="#BE8F60"/><stop offset="1" stop-color="#6C4726"/>
    </linearGradient>
    <radialGradient id="glow" cx="0.5" cy="0.5" r="0.5">
      <stop offset="0" stop-color="#FFE3B0" stop-opacity="0.9"/>
      <stop offset="1" stop-color="#FFE3B0" stop-opacity="0"/>
    </radialGradient>
    <filter id="soft" x="-50%" y="-50%" width="200%" height="200%"><feGaussianBlur stdDeviation="16"/></filter>
    <filter id="softer" x="-50%" y="-50%" width="200%" height="200%"><feGaussianBlur stdDeviation="6"/></filter>
    <pattern id="cane" width="24" height="24" patternUnits="userSpaceOnUse">
      <rect width="24" height="24" fill="#5E4127"/>
      <g stroke="#C89B5E" stroke-width="3.2" stroke-linecap="round">
        <line x1="0" y1="0" x2="24" y2="24"/>
        <line x1="24" y1="0" x2="0" y2="24"/>
      </g>
      <rect x="0" y="8.5" width="24" height="7" fill="#E4C28C"/>
      <rect x="8.5" y="0" width="7" height="24" fill="#C89B5E"/>
      <rect x="0" y="8.5" width="24" height="2" fill="#FFFFFF" opacity="0.18"/>
    </pattern>
    <pattern id="wicker" width="22" height="14" patternUnits="userSpaceOnUse">
      <rect width="22" height="14" fill="#5E4127"/>
      <rect x="1" y="1" width="20" height="5.2" rx="2.6" fill="#C89B5E"/>
      <rect x="1" y="1" width="20" height="2" rx="1" fill="#E4C28C" opacity="0.7"/>
      <rect x="-10" y="8" width="20" height="5.2" rx="2.6" fill="#C89B5E"/>
      <rect x="12" y="8" width="20" height="5.2" rx="2.6" fill="#C89B5E"/>
      <rect x="12" y="8" width="20" height="2" rx="1" fill="#E4C28C" opacity="0.7"/>
      <rect x="-10" y="8" width="20" height="2" rx="1" fill="#E4C28C" opacity="0.7"/>
    </pattern>
    <pattern id="weave" width="30" height="30" patternUnits="userSpaceOnUse">
      <rect width="30" height="30" fill="#9A6E3F"/>
      <rect x="1" y="1" width="13" height="28" rx="3" fill="#C89B5E"/>
      <rect x="16" y="1" width="13" height="13" rx="3" fill="#E4C28C"/>
      <rect x="16" y="16" width="13" height="13" rx="3" fill="#C89B5E"/>
      <rect x="1" y="1" width="13" height="4" rx="2" fill="#FFFFFF" opacity="0.2"/>
    </pattern>
  </defs><rect x="-100" y="-100" width="1000" height="1200" fill="url(#wall2)"/>
     <path d="M520 60 L760 60 L760 560 L520 560 Z" fill="#FFFFFF" opacity="0.28"/>
     <path d="M520 60 L760 60 L700 560 L460 560 Z" fill="#FFF7E8" opacity="0.18"/>
     <rect x="0" y="720" width="800" height="280" fill="url(#floor2)"/>
     <line x1="0" y1="760" x2="800" y2="760" stroke="#A88E6B" stroke-width="1.5" opacity="0.35"/><line x1="0" y1="810" x2="800" y2="810" stroke="#A88E6B" stroke-width="1.5" opacity="0.35"/><line x1="0" y1="870" x2="800" y2="870" stroke="#A88E6B" stroke-width="1.5" opacity="0.35"/><line x1="0" y1="940" x2="800" y2="940" stroke="#A88E6B" stroke-width="1.5" opacity="0.35"/>
     <ellipse cx="400" cy="800" rx="360" ry="70" fill="#E9DFCF" opacity="0.7"/>
     <g transform="translate(40 60) scale(0.9)">
    <ellipse cx="400" cy="794" rx="320" ry="26" fill="#3B2A1A" opacity="0.22" filter="url(#soft)"/>
    
  <path d="M170 660 L174 770" fill="none" stroke="#9A6E3F" stroke-width="12" stroke-linecap="round" stroke-linejoin="round"/>
  <path d="M170 660 L174 770" fill="none" stroke="#C89B5E" stroke-width="8.399999999999999" stroke-linecap="round" stroke-linejoin="round"/>
  <path d="M170 660 L174 770" fill="none" stroke="#E4C28C" stroke-width="2.64" stroke-linecap="round" stroke-linejoin="round" transform="translate(-1.6800000000000002 -1.6800000000000002)" opacity="0.8"/>
  <path d="M630 660 L626 770" fill="none" stroke="#9A6E3F" stroke-width="12" stroke-linecap="round" stroke-linejoin="round"/>
  <path d="M630 660 L626 770" fill="none" stroke="#C89B5E" stroke-width="8.399999999999999" stroke-linecap="round" stroke-linejoin="round"/>
  <path d="M630 660 L626 770" fill="none" stroke="#E4C28C" stroke-width="2.64" stroke-linecap="round" stroke-linejoin="round" transform="translate(-1.6800000000000002 -1.6800000000000002)" opacity="0.8"/>
    
  <path d="M130 440 Q130 400 170 400 L630 400 Q670 400 670 440 L670 600 L130 600 Z" fill="url(#cane)"/>
  <path d="M130 440 Q130 400 170 400 L630 400 Q670 400 670 440 L670 600 L130 600 Z" fill="url(#sheen)" opacity="0.6"/>
  <path d="M130 440 Q130 400 170 400 L630 400 Q670 400 670 440 L670 600 L130 600 Z" fill="none" stroke="#9A6E3F" stroke-width="2" opacity="0.35"/>
    
  <path d="M130 600 L130 440 Q130 400 170 400 L630 400 Q670 400 670 440 L670 600" fill="none" stroke="#9A6E3F" stroke-width="15" stroke-linecap="round" stroke-linejoin="round"/>
  <path d="M130 600 L130 440 Q130 400 170 400 L630 400 Q670 400 670 440 L670 600" fill="none" stroke="#C89B5E" stroke-width="10.5" stroke-linecap="round" stroke-linejoin="round"/>
  <path d="M130 600 L130 440 Q130 400 170 400 L630 400 Q670 400 670 440 L670 600" fill="none" stroke="#E4C28C" stroke-width="3.3" stroke-linecap="round" stroke-linejoin="round" transform="translate(-2.1 -2.1)" opacity="0.8"/>
    
  <rect x="144" y="470" width="165.33333333333334" height="118" rx="30" fill="#E8E0D2"/>
  <rect x="144" y="470" width="165.33333333333334" height="118" rx="30" fill="url(#sheen)"/>
  <rect x="150" y="578" width="153.33333333333334" height="6" rx="3" fill="#000" opacity="0.06"/>
  <rect x="317.33333333333337" y="470" width="165.33333333333334" height="118" rx="30" fill="#E8E0D2"/>
  <rect x="317.33333333333337" y="470" width="165.33333333333334" height="118" rx="30" fill="url(#sheen)"/>
  <rect x="323.33333333333337" y="578" width="153.33333333333334" height="6" rx="3" fill="#000" opacity="0.06"/>
  <rect x="490.6666666666667" y="470" width="165.33333333333334" height="118" rx="30" fill="#E8E0D2"/>
  <rect x="490.6666666666667" y="470" width="165.33333333333334" height="118" rx="30" fill="url(#sheen)"/>
  <rect x="496.6666666666667" y="578" width="153.33333333333334" height="6" rx="3" fill="#000" opacity="0.06"/>
    
  <path d="M120 640 L680 640 L686 694 L114 694 Z" fill="url(#wicker)"/>
  <path d="M120 640 L680 640 L686 694 L114 694 Z" fill="url(#sheen)" opacity="0.6"/>
  <path d="M120 640 L680 640 L686 694 L114 694 Z" fill="none" stroke="#9A6E3F" stroke-width="2" opacity="0.35"/>
    
  <rect x="140" y="586" width="173.33333333333334" height="72" rx="22" fill="#E8E0D2"/>
  <rect x="140" y="586" width="173.33333333333334" height="72" rx="22" fill="url(#sheen)"/>
  <rect x="146" y="648" width="161.33333333333334" height="6" rx="3" fill="#000" opacity="0.06"/>
  <rect x="313.33333333333337" y="586" width="173.33333333333334" height="72" rx="22" fill="#E8E0D2"/>
  <rect x="313.33333333333337" y="586" width="173.33333333333334" height="72" rx="22" fill="url(#sheen)"/>
  <rect x="319.33333333333337" y="648" width="161.33333333333334" height="6" rx="3" fill="#000" opacity="0.06"/>
  <rect x="486.6666666666667" y="586" width="173.33333333333334" height="72" rx="22" fill="#E8E0D2"/>
  <rect x="486.6666666666667" y="586" width="173.33333333333334" height="72" rx="22" fill="url(#sheen)"/>
  <rect x="492.6666666666667" y="648" width="161.33333333333334" height="6" rx="3" fill="#000" opacity="0.06"/>
    
  <path d="M110 704 C92 580 106 520 154 510" fill="none" stroke="#9A6E3F" stroke-width="17" stroke-linecap="round" stroke-linejoin="round"/>
  <path d="M110 704 C92 580 106 520 154 510" fill="none" stroke="#C89B5E" stroke-width="11.899999999999999" stroke-linecap="round" stroke-linejoin="round"/>
  <path d="M110 704 C92 580 106 520 154 510" fill="none" stroke="#E4C28C" stroke-width="3.74" stroke-linecap="round" stroke-linejoin="round" transform="translate(-2.3800000000000003 -2.3800000000000003)" opacity="0.8"/>
  <path d="M690 704 C708 580 694 520 646 510" fill="none" stroke="#9A6E3F" stroke-width="17" stroke-linecap="round" stroke-linejoin="round"/>
  <path d="M690 704 C708 580 694 520 646 510" fill="none" stroke="#C89B5E" stroke-width="11.899999999999999" stroke-linecap="round" stroke-linejoin="round"/>
  <path d="M690 704 C708 580 694 520 646 510" fill="none" stroke="#E4C28C" stroke-width="3.74" stroke-linecap="round" stroke-linejoin="round" transform="translate(-2.3800000000000003 -2.3800000000000003)" opacity="0.8"/>
    
  <path d="M120 694 L108 792" fill="none" stroke="#9A6E3F" stroke-width="15" stroke-linecap="round" stroke-linejoin="round"/>
  <path d="M120 694 L108 792" fill="none" stroke="#C89B5E" stroke-width="10.5" stroke-linecap="round" stroke-linejoin="round"/>
  <path d="M120 694 L108 792" fill="none" stroke="#E4C28C" stroke-width="3.3" stroke-linecap="round" stroke-linejoin="round" transform="translate(-2.1 -2.1)" opacity="0.8"/>
  <path d="M680 694 L692 792" fill="none" stroke="#9A6E3F" stroke-width="15" stroke-linecap="round" stroke-linejoin="round"/>
  <path d="M680 694 L692 792" fill="none" stroke="#C89B5E" stroke-width="10.5" stroke-linecap="round" stroke-linejoin="round"/>
  <path d="M680 694 L692 792" fill="none" stroke="#E4C28C" stroke-width="3.3" stroke-linecap="round" stroke-linejoin="round" transform="translate(-2.1 -2.1)" opacity="0.8"/>
    
  <path d="M114 698 L686 698" fill="none" stroke="#9A6E3F" stroke-width="11" stroke-linecap="round" stroke-linejoin="round"/>
  <path d="M114 698 L686 698" fill="none" stroke="#C89B5E" stroke-width="7.699999999999999" stroke-linecap="round" stroke-linejoin="round"/>
  <path d="M114 698 L686 698" fill="none" stroke="#E4C28C" stroke-width="2.42" stroke-linecap="round" stroke-linejoin="round" transform="translate(-1.54 -1.54)" opacity="0.8"/>
    
  <g transform="translate(146 512) rotate(-30)" stroke="#9A6E3F" stroke-width="2.2" stroke-linecap="round">
    <line x1="-10" y1="-6" x2="10" y2="-4"/><line x1="-10" y1="-1" x2="10" y2="1"/><line x1="-10" y1="4" x2="10" y2="6"/>
  </g>
  <g transform="translate(654 512) rotate(30)" stroke="#9A6E3F" stroke-width="2.2" stroke-linecap="round">
    <line x1="-10" y1="-6" x2="10" y2="-4"/><line x1="-10" y1="-1" x2="10" y2="1"/><line x1="-10" y1="4" x2="10" y2="6"/>
  </g>
    
  <rect x="154" y="520" width="96" height="76" rx="26" fill="#C68B6E"/>
  <rect x="154" y="520" width="96" height="76" rx="26" fill="url(#sheen)"/>
  <rect x="160" y="586" width="84" height="6" rx="3" fill="#000" opacity="0.06"/></g>
     <g transform="translate(92 520)">
       <path d="M-40 250 L40 250 L30 320 L-30 320 Z" fill="#B7A48A"/>
       <path d="M0 250 C-10 160 -60 110 -90 60" stroke="#5E6B4A" stroke-width="5" fill="none"/>
       <path d="M0 250 C10 150 50 90 70 20" stroke="#5E6B4A" stroke-width="5" fill="none"/>
       <path d="M0 250 C0 170 -10 90 0 0" stroke="#5E6B4A" stroke-width="5" fill="none"/>
       <ellipse cx="-90" cy="60" rx="46" ry="16" fill="#6F7A58" transform="rotate(-40 -90 60)"/>
       <ellipse cx="70" cy="22" rx="46" ry="16" fill="#7D8964" transform="rotate(-60 70 22)"/>
       <ellipse cx="0" cy="4" rx="44" ry="15" fill="#65714F" transform="rotate(-85 0 4)"/>
       <ellipse cx="-40" cy="140" rx="40" ry="14" fill="#7D8964" transform="rotate(-20 -40 140)"/>
       <ellipse cx="40" cy="120" rx="40" ry="14" fill="#6F7A58" transform="rotate(-150 40 120)"/>
     </g>
     <text x="742" y="974" text-anchor="end" font-family="Arial, sans-serif" font-size="14" letter-spacing="2" fill="#FFFFFF" opacity="0.75">DEMO IMAGE</text></svg>