<svg xmlns="http://www.w3.org/2000/svg" viewBox="60 195 680 850" width="800" height="1000" role="img">
  <defs>
    <linearGradient id="wall" x1="0" y1="0" x2="0" y2="1">
      <stop offset="0" stop-color="#F4EDE2"/><stop offset="1" stop-color="#EBE1D2"/>
    </linearGradient>
    <linearGradient id="floor" x1="0" y1="0" x2="0" y2="1">
      <stop offset="0" stop-color="#E3D7C5"/><stop offset="1" stop-color="#D5C6AF"/>
    </linearGradient>
    <linearGradient id="wall2" x1="0" y1="0" x2="1" y2="1">
      <stop offset="0" stop-color="#EDE2D1"/><stop offset="1" stop-color="#E2D4BF"/>
    </linearGradient>
    <linearGradient id="floor2" x1="0" y1="0" x2="0" y2="1">
      <stop offset="0" stop-color="#CDB999"/><stop offset="1" stop-color="#BBA482"/>
    </linearGradient>
    <radialGradient id="light" cx="0.3" cy="0.2" r="0.9">
      <stop offset="0" stop-color="#FFFFFF" stop-opacity="0.55"/>
      <stop offset="1" stop-color="#FFFFFF" stop-opacity="0"/>
    </radialGradient>
    <radialGradient id="vignette" cx="0.5" cy="0.45" r="0.75">
      <stop offset="0.55" stop-color="#000" stop-opacity="0"/>
      <stop offset="1" stop-color="#2B1D11" stop-opacity="0.28"/>
    </radialGradient>
    <linearGradient id="sheen" x1="0" y1="0" x2="1" y2="1">
      <stop offset="0" stop-color="#FFFFFF" stop-opacity="0.35"/>
      <stop offset="0.5" stop-color="#FFFFFF" stop-opacity="0"/>
      <stop offset="1" stop-color="#000000" stop-opacity="0.12"/>
    </linearGradient>
    <linearGradient id="teak" x1="0" y1="0" x2="0" y2="1">
      <stop offset="0" stop-color="#BE8F60"/><stop offset="1" stop-color="#6C4726"/>
    </linearGradient>
    <radialGradient id="glow" cx="0.5" cy="0.5" r="0.5">
      <stop offset="0" stop-color="#FFE3B0" stop-opacity="0.9"/>
      <stop offset="1" stop-color="#FFE3B0" stop-opacity="0"/>
    </radialGradient>
    <filter id="soft" x="-50%" y="-50%" width="200%" height="200%"><feGaussianBlur stdDeviation="16"/></filter>
    <filter id="softer" x="-50%" y="-50%" width="200%" height="200%"><feGaussianBlur stdDeviation="6"/></filter>
    <pattern id="cane" width="24" height="24" patternUnits="userSpaceOnUse">
      <rect width="24" height="24" fill="#2B1D11"/>
      <g stroke="#7E5636" stroke-width="3.2" stroke-linecap="round">
        <line x1="0" y1="0" x2="24" y2="24"/>
        <line x1="24" y1="0" x2="0" y2="24"/>
      </g>
      <rect x="0" y="8.5" width="24" height="7" fill="#A67B52"/>
      <rect x="8.5" y="0" width="7" height="24" fill="#7E5636"/>
      <rect x="0" y="8.5" width="24" height="2" fill="#FFFFFF" opacity="0.18"/>
    </pattern>
    <pattern id="wicker" width="22" height="14" patternUnits="userSpaceOnUse">
      <rect width="22" height="14" fill="#2B1D11"/>
      <rect x="1" y="1" width="20" height="5.2" rx="2.6" fill="#7E5636"/>
      <rect x="1" y="1" width="20" height="2" rx="1" fill="#A67B52" opacity="0.7"/>
      <rect x="-10" y="8" width="20" height="5.2" rx="2.6" fill="#7E5636"/>
      <rect x="12" y="8" width="20" height="5.2" rx="2.6" fill="#7E5636"/>
      <rect x="12" y="8" width="20" height="2" rx="1" fill="#A67B52" opacity="0.7"/>
      <rect x="-10" y="8" width="20" height="2" rx="1" fill="#A67B52" opacity="0.7"/>
    </pattern>
    <pattern id="weave" width="30" height="30" patternUnits="userSpaceOnUse">
      <rect width="30" height="30" fill="#553821"/>
      <rect x="1" y="1" width="13" height="28" rx="3" fill="#7E5636"/>
      <rect x="16" y="1" width="13" height="13" rx="3" fill="#A67B52"/>
      <rect x="16" y="16" width="13" height="13" rx="3" fill="#7E5636"/>
      <rect x="1" y="1" width="13" height="4" rx="2" fill="#FFFFFF" opacity="0.2"/>
    </pattern>
  </defs><rect x="-100" y="-100" width="1000" height="1300" fill="url(#wall)"/>
     <path d="M-100 700 Q400 690 900 700 L900 1200 L-100 1200 Z" fill="url(#floor)"/>
     <rect width="800" height="1000" fill="url(#light)"/>
     <g>
    <ellipse cx="400" cy="790" rx="250" ry="30" fill="#3B2A1A" opacity="0.22" filter="url(#soft)"/>
    <path d="M190 560 C200 660 240 740 290 780 L510 780 C560 740 600 660 610 560 Z" fill="url(#wicker)"/>
    <path d="M190 560 C200 660 240 740 290 780 L510 780 C560 740 600 660 610 560 Z" fill="url(#sheen)" opacity="0.6"/>
    
  <path d="M290 782 L510 782" fill="none" stroke="#553821" stroke-width="14" stroke-linecap="round" stroke-linejoin="round"/>
  <path d="M290 782 L510 782" fill="none" stroke="#7E5636" stroke-width="9.799999999999999" stroke-linecap="round" stroke-linejoin="round"/>
  <path d="M290 782 L510 782" fill="none" stroke="#A67B52" stroke-width="3.08" stroke-linecap="round" stroke-linejoin="round" transform="translate(-1.9600000000000002 -1.9600000000000002)" opacity="0.8"/>
    <ellipse cx="400" cy="556" rx="232" ry="62" fill="url(#teak)"/>
    <ellipse cx="400" cy="548" rx="226" ry="56" fill="#BE8F60"/>
    <ellipse cx="370" cy="536" rx="140" ry="24" fill="#FFFFFF" opacity="0.14"/>
    <path d="M168 556 A232 62 0 0 0 632 556" fill="none" stroke="#553821" stroke-width="12"/>
    <path d="M168 556 A232 62 0 0 0 632 556" fill="none" stroke="#7E5636" stroke-width="7"/>
    <g transform="translate(470 500)"><rect x="-26" y="-6" width="52" height="40" rx="8" fill="#F2ECE1"/><path d="M0 -6 C-14 -50 14 -60 0 -96" stroke="#6F7A58" stroke-width="4" fill="none"/><ellipse cx="-10" cy="-60" rx="16" ry="7" fill="#7D8964" transform="rotate(-30 -10 -60)"/><ellipse cx="10" cy="-80" rx="16" ry="7" fill="#6F7A58" transform="rotate(25 10 -80)"/></g></g>
     <text x="712" y="1004" text-anchor="end" font-family="Arial, sans-serif" font-size="13" letter-spacing="2" fill="#8C7B64" opacity="0.7">DEMO IMAGE</text></svg>